# xmcd CD database file
#
# Track frame offsets:
#	150
#	22194
#	41270
#	60362
#	71432
#	86635
#	95450
#	110362
#	124142
#	142192
#	156582
#
# Disc length: 2335 seconds
#
# Revision: 1
# Processed by: cddbd v1.5.2PL0 Copyright (c) Steve Scherf et al.
# Submitted via: jetAudio 7
#
DISCID=96091d0b
DTITLE=Various Artist - Songs 4 Worship Volume 02 - Holy Ground - DISC 1. 2000
DYEAR=2000
DGENRE=Worship and Praise
TTITLE0=Brian Doerksen - Come Now Is The Time To Worship
TTITLE1=Geron Davis - Holy Ground
TTITLE2=Dennis Jernigan - You Are My All In All
TTITLE3=Twila Paris - We Will Glorify
TTITLE4=The Maranatha Singers - Glorify Thy Name
TTITLE5=Roby Duke - Change My Heart, Oh God
TTITLE6=Steve Green - He Who Began A Good Work
TTITLE7=The Maranatha Singers - Seek Ye First
TTITLE8=Randy Butler - Holy And Anointed One
TTITLE9=LaMar Boschman - More Precious Than Silver
TTITLE10=The Maranatha Singers - As The Deer
EXTD=
EXTT0=
EXTT1=
EXTT2=
EXTT3=
EXTT4=
EXTT5=
EXTT6=
EXTT7=
EXTT8=
EXTT9=
EXTT10=
PLAYORDER=
